<svg width="48" height="48" viewBox="0 0 48 48" fill="none" xmlns="http://www.w3.org/2000/svg"><path d="M44.572 44.572c-6.722 0-12.379-11.766-12.379-26.28 0-8.209 2.422-14.863 5.41-14.863 2.987 0 5.409 6.654 5.409 14.863 0 14.514-5.45 26.28-12.171 26.28-6.722 0-12.38-11.766-12.38-26.28 0-8.209 2.422-14.863 5.41-14.863 2.987 0 5.41 6.654 5.41 14.863 0 14.514-5.45 26.28-12.172 26.28s-12.38-11.766-12.38-26.28m.053 0c0-8.209 2.422-14.863 5.41-14.863 2.987 0 5.409 6.654 5.409 14.863 0 14.514-5.45 26.28-12.172 26.28" stroke="#525252" stroke-linejoin="round"/></svg>